<?xml version="1.0" encoding="UTF-8" standalone="no"?>
<!-- Created with Inkscape (http://www.inkscape.org/) -->

<svg
   width="210mm"
   height="297mm"
   viewBox="0 0 210 297"
   version="1.1"
   id="svg1"
   inkscape:version="1.3.2 (091e20e, 2023-11-25, custom)"
   sodipodi:docname="fig3.svg"
   xmlns:inkscape="http://www.inkscape.org/namespaces/inkscape"
   xmlns:sodipodi="http://sodipodi.sourceforge.net/DTD/sodipodi-0.dtd"
   xmlns="http://www.w3.org/2000/svg"
   xmlns:svg="http://www.w3.org/2000/svg">
  <sodipodi:namedview
     id="namedview1"
     pagecolor="#ffffff"
     bordercolor="#cccccc"
     borderopacity="1"
     inkscape:showpageshadow="0"
     inkscape:pageopacity="1"
     inkscape:pagecheckerboard="0"
     inkscape:deskcolor="#d1d1d1"
     inkscape:document-units="mm"
     inkscape:zoom="1.3845821"
     inkscape:cx="439.84391"
     inkscape:cy="448.51078"
     inkscape:window-width="1800"
     inkscape:window-height="1036"
     inkscape:window-x="-9"
     inkscape:window-y="-9"
     inkscape:window-maximized="1"
     inkscape:current-layer="layer1"
     inkscape:export-bgcolor="#ffffffff" />
  <defs
     id="defs1">
    <rect
       x="826.24208"
       y="640.62651"
       width="683.96089"
       height="464.40005"
       id="rect2" />
    <clipPath
       id="clipPath1388">
      <path
         d="M62.16 45.51 570.03 45.51 570.03 498.02 62.16 498.02Z"
         id="path1386" />
    </clipPath>
    <marker
       markerUnits="strokeWidth"
       orient="auto"
       id="Arrow1Send"
       overflow="visible">
      <path
         d="M0 0 5-5-12.5 0 5 5Z"
         id="path3965"
         stroke="#000000"
         stroke-width="1.33333"
         fill-rule="evenodd"
         transform="matrix(-0.2 0 0 -0.2 -1.2 0)" />
    </marker>
    <marker
       markerUnits="strokeWidth"
       orient="auto"
       id="marker4270"
       overflow="visible">
      <path
         d="M0 0 5-5-12.5 0 5 5Z"
         id="path4268"
         stroke="#008080"
         stroke-width="1.33333"
         fill="#008080"
         fill-rule="evenodd"
         transform="matrix(-0.2 0 0 -0.2 -1.2 0)" />
    </marker>
    <clipPath
       id="clipPath1388-3">
      <path
         d="M62.16 45.51 570.03 45.51 570.03 498.02 62.16 498.02Z"
         id="path1386-3" />
    </clipPath>
    <marker
       markerUnits="strokeWidth"
       orient="auto"
       id="marker4693"
       overflow="visible">
      <path
         d="M0 0 5-5-12.5 0 5 5Z"
         id="path4691"
         stroke="#000000"
         stroke-width="1.33333"
         fill-rule="evenodd"
         transform="matrix(-0.2 0 0 -0.2 -1.2 0)" />
    </marker>
    <marker
       markerUnits="strokeWidth"
       orient="auto"
       id="marker4683"
       overflow="visible">
      <path
         d="M0 0 5-5-12.5 0 5 5Z"
         id="path4681"
         stroke="#800000"
         stroke-width="1.33333"
         fill="#800000"
         fill-rule="evenodd"
         transform="matrix(-0.2 0 0 -0.2 -1.2 0)" />
    </marker>
    <marker
       markerUnits="strokeWidth"
       orient="auto"
       id="marker4683-0"
       overflow="visible">
      <path
         d="M 0,0 5,-5 -12.5,0 5,5 Z"
         id="path4681-2"
         stroke="#800000"
         stroke-width="1.33333"
         fill="#800000"
         fill-rule="evenodd"
         transform="matrix(-0.2,0,0,-0.2,-1.2,0)" />
    </marker>
    <marker
       markerUnits="strokeWidth"
       orient="auto"
       id="marker4683-1"
       overflow="visible">
      <path
         d="M 0,0 5,-5 -12.5,0 5,5 Z"
         id="path4681-0"
         stroke="#800000"
         stroke-width="1.33333"
         fill="#800000"
         fill-rule="evenodd"
         transform="matrix(-0.2,0,0,-0.2,-1.2,0)" />
    </marker>
    <marker
       markerUnits="strokeWidth"
       orient="auto"
       id="marker4693-5"
       overflow="visible">
      <path
         d="M 0,0 5,-5 -12.5,0 5,5 Z"
         id="path4691-2"
         stroke="#000000"
         stroke-width="1.33333"
         fill-rule="evenodd"
         transform="matrix(-0.2,0,0,-0.2,-1.2,0)" />
    </marker>
  </defs>
  <g
     inkscape:label="Layer 1"
     inkscape:groupmode="layer"
     id="layer1">
    <g
       id="g2999"
       transform="matrix(0.173966,0,0,-0.173966,29.954132,149.44895)">
      <text
         id="text2997"
         stroke-width="1.728"
         font-family="Helvetica"
         font-weight="400"
         font-size="31.104px"
         transform="scale(1,-1)"
         x="215.757"
         y="2.78649"><tspan
           id="tspan11" /></text>
    </g>
    <g
       id="g8"
       inkscape:export-filename="fig3.png"
       inkscape:export-xdpi="600"
       inkscape:export-ydpi="600">
      <g
         id="g2859"
         transform="matrix(0.173966,0,0,-0.173966,63.395328,155.9461)">
        <g
           id="g2857"
           clip-path="url(#clipPath1388)">
          <path
             d="M 62.16,45.51 H 570.03 V 498.02 H 62.16 Z"
             id="path2847"
             fill="#ffffff" />
          <path
             d="m 85.24,223.429 0.07,0.158 0.27,0.556 1.15,2.455 0.1,0.205 0.09,0.206 1.02,2.176 0.24,0.533 0.08,0.157 0.56,1.221 0.45,0.968 0.11,0.241 0.48,1.052 1.19,2.588 1.13,2.479 0.32,0.702 0.74,1.632 0.27,0.617 0.19,0.411 0.58,1.294 0.02,0.048 v 0 l 0.89,1.983 0.4,0.895 0.13,0.303 0.25,0.568 0.43,0.955 0.42,0.956 1.14,2.575 1.84,4.196 0.81,1.85 0.53,1.222 0.85,1.947 0.31,0.713 0.98,2.274 0.13,0.302 0.99,2.297 0.07,0.158 0.02,0.048 0.11,0.266 0.75,1.741 0.08,0.194 0.65,1.524 0.13,0.29 0.09,0.217 0.45,1.052 0.31,0.726 0.02,0.048 0.76,1.802 0.03,0.049 0.05,0.133 0.62,1.463 0.61,1.439 0.3,0.701 0.32,0.762 0.5,1.197 0.32,0.738 0.5,1.185 0.72,1.729 0.11,0.254 0.13,0.327 1.04,2.466 0.03,0.061 0.22,0.532 0.64,1.536 1.05,2.515 1.86,4.438 0.72,1.729 0.43,1.052 0.09,0.218 0.13,0.314 0.07,0.17 1.08,2.587 0.26,0.641 0.09,0.206 0.33,0.798 0.38,0.919 1.52,3.664 0.69,1.669 0.48,1.161 0.01,0.024 1.32,3.18 0.41,1.004 0.31,0.75 0.13,0.302 0.53,1.282 0.9,2.189 0.34,0.81 0.27,0.665 0.6,1.427 0.3,0.75 0.15,0.362 0.43,1.028 0.06,0.133 0.62,1.5 0.15,0.362 0.28,0.678 0.83,2.007 0.19,0.447 0.59,1.427 0.15,0.375 0.84,2.007 0.03,0.061 0.31,0.75 0.05,0.121 0.04,0.109 0.13,0.302 0.62,1.487 0.87,2.08 0.27,0.653 0.13,0.327 0.3,0.713 1.05,2.503 0.02,0.049 1.44,3.434 0.71,1.669 0.48,1.148 0.23,0.557 0.27,0.641 0.69,1.62 0.25,0.58 0.11,0.266 0.03,0.061 0.48,1.137 0.29,0.677 1.31,3.083 0.62,1.452 0.67,1.56 0.08,0.193 0.17,0.387 0.91,2.128 0.3,0.69 2.7,6.227 0.25,0.556 0.01,0.037 0.07,0.145 0.28,0.653 0.44,0.991 0.18,0.424 0.36,0.81 0.06,0.133 0.25,0.568 0.58,1.318 0.18,0.399 0.24,0.532 0.47,1.052 0.15,0.351 0.72,1.608 0.27,0.593 0.35,0.798 0.02,0.036 v 0.012 l 0.01,0.013 0.57,1.269 0.11,0.254 1.27,2.794 0.47,1.027 0.04,0.097 0.21,0.448 0.17,0.374 0.44,0.956 0.32,0.713 0.45,0.968 0.35,0.761 0.25,0.533 0.06,0.12 0.64,1.379 0.34,0.75 0.49,1.016 0.31,0.689 0.3,0.629 0.58,1.233 0.53,1.113 0.38,0.786 0.12,0.266 0.11,0.205 1.17,2.443 0.79,1.632 0.41,0.823 0.02,0.048 0.46,0.943 0.02,0.049 0.2,0.399 0.03,0.048 0.59,1.209 0.22,0.436 0.49,0.991 1.37,2.733 2.69,5.224 0.01,0.024 0.67,1.282 0.26,0.496 0.84,1.584 1.68,3.108 0.33,0.604 0.36,0.678 0.26,0.471 2.02,3.604 1.54,2.684 0.43,0.738 0.65,1.113 0.15,0.254 0.17,0.278 0.39,0.653 0.73,1.233 1.09,1.778 0.74,1.197 2.16,3.41 h 0.01 l 0.5,0.774 0.07,0.109 0.22,0.338 0.16,0.254 0.35,0.52 0.66,0.992 0.16,0.23 0.1,0.145 0.06,0.096 0.46,0.665 0.31,0.472 0.51,0.726 0.41,0.592 0.56,0.798 0.04,0.049 0.35,0.483 0.03,0.049 1.55,2.128 0.39,0.532 0.5,0.653 0.21,0.278 0.65,0.847 0.83,1.064 0.2,0.254 0.45,0.556 0.05,0.061 0.13,0.169 0.28,0.351 0.24,0.29 0.45,0.544 0.17,0.205 0.23,0.279 0.44,0.52 1.42,1.644 0.98,1.089 0.16,0.181 0.17,0.181 1.37,1.451 0.63,0.653 1.01,1.016 0.06,0.061 0.34,0.326 1.57,1.475 0.73,0.666 0.21,0.181 0.08,0.072 0.33,0.291 0.33,0.278 0.88,0.737 0.02,0.025 1.02,0.822 h 0.01 l 0.3,0.242 0.14,0.097 0.71,0.544 0.87,0.629 0.53,0.374 0.11,0.073 0.01,0.012 1.3,0.859 0.06,0.036 0.19,0.121 0.1,0.072 0.08,0.049 0.69,0.423 0.37,0.218 0.43,0.242 1.29,0.701 0.58,0.29 0.18,0.097 0.15,0.072 0.15,0.073 v 0 l 0.06,0.024 0.01,0.012 0.06,0.025 0.26,0.12 1.19,0.533 0.38,0.157 0.53,0.205 0.42,0.157 0.09,0.037 2.62,0.822 0.4,0.109 0.19,0.048 0.66,0.157 h 0.01 l 1.28,0.242 0.29,0.049 0.04,0.012 0.77,0.109 v 0 l 0.54,0.06 0.19,0.024 1.5,0.097 h 0.02 l 0.16,0.012 h 0.31 1.15 0.2 0.08 l 0.11,-0.012 h 0.16 l 0.64,-0.036 0.2,-0.012 0.71,-0.073 0.53,-0.06 0.57,-0.073 0.14,-0.024 0.49,-0.073 0.12,-0.024 0.26,-0.048 0.44,-0.085 0.07,-0.012 0.11,-0.024 0.1,-0.024 0.21,-0.037 0.44,-0.109 1.34,-0.35 0.63,-0.182 0.15,-0.048 0.75,-0.254 0.67,-0.242 0.25,-0.097 0.59,-0.229 0.82,-0.339 0.8,-0.363 0.54,-0.266 0.42,-0.193 0.42,-0.218 0.11,-0.06 0.82,-0.448 0.23,-0.121 0.46,-0.266 0.32,-0.181 1.76,-1.101 0.32,-0.217 0.33,-0.218 0.5,-0.338 0.34,-0.242 0.5,-0.363 0.08,-0.061 0.04,-0.024 0.8,-0.604 0.14,-0.097 0.03,-0.036 0.37,-0.279 0.31,-0.241 0.14,-0.121 1.07,-0.871 1.57,-1.354 0.43,-0.387 0.4,-0.375 0.02,-0.012 0.2,-0.194 0.16,-0.145 0.15,-0.133 0.12,-0.121 0.36,-0.338 0.18,-0.182 0.28,-0.266 0.67,-0.665 0.44,-0.435 0.3,-0.303 0.33,-0.35 0.9,-0.943 0.04,-0.037 0.22,-0.229 0.67,-0.738 0.14,-0.145 0.11,-0.133 0.8,-0.895 0.18,-0.194 1.38,-1.608 0.5,-0.605 1.41,-1.717 0.01,-0.012 0.23,-0.29 0.33,-0.411 0.01,-0.012 1.25,-1.621 0.14,-0.169 0.05,-0.072 0.4,-0.52 0.19,-0.254 0.19,-0.254 0.69,-0.932 1.72,-2.394 0.02,-0.012 0.09,-0.133 0.1,-0.133 0.1,-0.157 0.32,-0.46 0.26,-0.375 0.83,-1.197 0.57,-0.834 1.11,-1.669 0.84,-1.282 0.06,-0.084 0.41,-0.641 0.55,-0.871 0.11,-0.157 0.2,-0.314 0.17,-0.266 0.6,-0.968 0.02,-0.024 0.23,-0.363 0.22,-0.351 0.34,-0.556 0.74,-1.209 0.21,-0.351 0.26,-0.423 0.19,-0.326 0.38,-0.629 0.09,-0.145 0.24,-0.399 0.77,-1.294 0.29,-0.508 0.05,-0.073 0.06,-0.109 0.41,-0.701 0.11,-0.193 0.06,-0.109 0.65,-1.113 0.16,-0.278 0.49,-0.858 0.75,-1.331 0.45,-0.81 0.67,-1.209 0.71,-1.27 0.46,-0.846 0.09,-0.157 0.15,-0.279 v -0.012 l 1.96,-3.652 0.79,-1.487 0.53,-1.028 0.04,-0.072 1.53,-2.951 0.18,-0.351 1.1,-2.152 1.07,-2.141 0.11,-0.229 1.05,-2.104 0.51,-1.04 0.17,-0.351 0.51,-1.028 0.09,-0.193 0.63,-1.294 0.6,-1.234 0.4,-0.834 0.66,-1.379 0.16,-0.338 0.7,-1.463 0.58,-1.234 0.02,-0.036 0.7,-1.476 0.16,-0.362 0.73,-1.56 0.75,-1.596 0.48,-1.04 0.3,-0.653 0.02,-0.049 0.58,-1.257 0.23,-0.508 0.03,-0.061 0.12,-0.254 0.85,-1.862 0.95,-2.104 0.41,-0.919 1.73,-3.846 0.2,-0.459 0.95,-2.116 0.01,-0.037 0.01,-0.024 0.24,-0.544 0.04,-0.085 0.38,-0.858 0.76,-1.717 0.17,-0.399 0.35,-0.798 0.1,-0.218 0.3,-0.689 0.12,-0.278 1.5,-3.435 0.19,-0.447 0.1,-0.218 0.67,-1.56 0.06,-0.133 0.37,-0.87 0.19,-0.436 0.11,-0.242 0.07,-0.169 0.96,-2.225 0.12,-0.29 0.8,-1.862 1.5,-3.507 0.19,-0.46 2.01,-4.752 0.24,-0.556 0.04,-0.109 0.48,-1.137 0.23,-0.544 1.5,-3.555 0.22,-0.532 0.1,-0.23 0.68,-1.62 0.68,-1.633 0.09,-0.206 1.05,-2.527 0.58,-1.378 0.02,-0.049 0.63,-1.523 1.09,-2.625 0.94,-2.261 0.14,-0.326 0.08,-0.206 0.47,-1.137 0.69,-1.656 0.99,-2.395 0.03,-0.06 0.26,-0.629 0.37,-0.895 0.25,-0.604 0.08,-0.194 0.74,-1.79 0.06,-0.145 0.03,-0.06 0.54,-1.318 0.16,-0.375 1.05,-2.54 0.04,-0.096 0.82,-1.983 0.23,-0.569 0.75,-1.814 0.87,-2.104 1.17,-2.805 0.21,-0.508 0.03,-0.073 0.68,-1.632 1.09,-2.636 0.04,-0.109 0.14,-0.339 0.09,-0.217 0.2,-0.484 0.27,-0.641 0.11,-0.266 0.47,-1.125 0.45,-1.076 0.16,-0.399 0.38,-0.907 0.87,-2.092 0.63,-1.512 1.28,-3.047 1.3,-3.108 0.01,-0.024 0.31,-0.737 0.34,-0.811 0.91,-2.152 0.43,-1.04 0.41,-0.967 0.08,-0.206 0.5,-1.173 0.18,-0.423 1.03,-2.443 0.02,-0.036 0.03,-0.061 1.15,-2.709 0.06,-0.157 0.04,-0.072 0.22,-0.532 0.11,-0.254 1.18,-2.782 0.38,-0.87 0.03,-0.061 0.1,-0.242 2.41,-5.611 0.46,-1.064 0.14,-0.302 0.24,-0.568 0.14,-0.339 0.03,-0.072 0.45,-1.016 0.02,-0.037 0.25,-0.58 0.68,-1.572 0.15,-0.339 0.08,-0.193 1.13,-2.576 0.6,-1.354 0.85,-1.947 0.37,-0.822 0.01,-0.037 0.13,-0.29 0.09,-0.205 0.89,-1.996 0.05,-0.109 0.45,-1.027 1.22,-2.721 0.64,-1.415 1.95,-4.317 1.05,-2.31 0.41,-0.87 1.81,-3.943 0.03,-0.06 0.02,-0.048 v 0 l 0.83,-1.778 1.23,-2.636 0.32,-0.69 0.05,-0.084 0.15,-0.327 0.42,-0.882 0.34,-0.726 0.88,-1.862 0.63,-1.318 0.02,-0.037 1.13,-2.345 0.23,-0.496 0.4,-0.823 0.01,-0.024 0.96,-1.983 0.25,-0.496 0.1,-0.217 0.07,-0.146 0.3,-0.604 0.47,-0.968 0.03,-0.048 0.56,-1.137 0.8,-1.632 0.26,-0.52 2.38,-4.74 0.44,-0.871 0.3,-0.593 0.51,-1.003 0.33,-0.629 0.15,-0.29 0.54,-1.064 0.76,-1.464 0.13,-0.254 0.05,-0.084 0.2,-0.399 0.43,-0.823 0.54,-1.027 0.13,-0.242 1.31,-2.491 0.15,-0.279 0.16,-0.302 0.29,-0.544 0.6,-1.137 0.49,-0.895 0.21,-0.399 0.93,-1.717 0.18,-0.326 0.1,-0.194 1.15,-2.08 0.03,-0.06 1.26,-2.274 0.29,-0.519 0.36,-0.629 0.09,-0.17 0.43,-0.761 0.19,-0.351 0.11,-0.182 0.02,-0.036 0.2,-0.363 0.39,-0.677 0.31,-0.544 1.26,-2.189 0.15,-0.266 0.1,-0.181 0.3,-0.508 0.08,-0.145 0.46,-0.786 0.24,-0.423 0.78,-1.318 0.3,-0.508 0.37,-0.617 0.82,-1.379 1.02,-1.705 0.69,-1.124 0.85,-1.391 0.02,-0.036 0.05,-0.085 0.52,-0.834 0.06,-0.109 0.45,-0.726 0.6,-0.955 0.32,-0.508 0.23,-0.375 0.74,-1.161 0.18,-0.29 0.85,-1.318 0.03,-0.06 1.05,-1.621 0.27,-0.411 0.14,-0.23 1.2,-1.814 0.34,-0.52 1.03,-1.535 0.08,-0.121 0.41,-0.605 0.75,-1.112 0.83,-1.21 0.11,-0.157 0.02,-0.024 0.21,-0.314 0.25,-0.363 0.28,-0.399 0.7,-1.004 0.46,-0.653 0.27,-0.387 0.69,-0.955 0.17,-0.242 1.27,-1.766 1.26,-1.717 0.11,-0.157 1.72,-2.297 0.66,-0.871 0.19,-0.254 0.14,-0.181 0.78,-1.016 0.45,-0.581 0.01,-0.012 0.11,-0.145 0.96,-1.221 0.2,-0.254 0.74,-0.943 0.1,-0.109 0.57,-0.714 0.33,-0.411 0.2,-0.254 0.13,-0.157 0.21,-0.266 0.34,-0.399 0.57,-0.701 0.6,-0.726 1.02,-1.221 0.31,-0.363 0.98,-1.161 0.14,-0.157 0.43,-0.496 0.44,-0.508 0.59,-0.677 1.5,-1.693 0.41,-0.46 0.08,-0.084 0.09,-0.109 0.44,-0.472 0.1,-0.12 0.18,-0.194 0.48,-0.52 0.14,-0.157 0.21,-0.218 0.31,-0.338 0.53,-0.569 0.06,-0.06 0.25,-0.266 0.01,-0.024 0.57,-0.605 0.2,-0.206 0.54,-0.556 0.02,-0.024 0.33,-0.351 2.98,-3.023 0.04,-0.036 0.42,-0.424 0.06,-0.06 0.14,-0.133 0.59,-0.58 1.24,-1.198 0.33,-0.314 0.05,-0.048 1.69,-1.585 1.27,-1.173 0.07,-0.06 0.15,-0.133 0.77,-0.689 0.29,-0.254 0.16,-0.145 0.17,-0.145 0.18,-0.17 0.27,-0.242 0.3,-0.254 0.59,-0.507 2.32,-1.984 0.52,-0.423 0.5,-0.411 0.02,-0.024 1.13,-0.907 0.42,-0.339 0.01,-0.012 0.04,-0.024 0.93,-0.75 0.1,-0.072 0.13,-0.097 0.37,-0.29 0.27,-0.206 0.28,-0.218 0.38,-0.302 1.01,-0.762 0.12,-0.084 0.37,-0.279 0.41,-0.3139 0.11,-0.0726 0.67,-0.4958 0.15,-0.1088 0.49,-0.3628 0.12,-0.0846 0.05,-0.0363 0.22,-0.1572 0.04,-0.0242 0.22,-0.1572 0.12,-0.0846 0.38,-0.2661 0.32,-0.2297 0.21,-0.1451 0.64,-0.4475 0.06,-0.0483 1.09,-0.7498 0.23,-0.1572 0.18,-0.1209 0.29,-0.1935 0.22,-0.1451 0.39,-0.266 0.11,-0.0605 0.32,-0.2177 3.01,-1.9348 0.18,-0.1088 0.74,-0.4595 0.16,-0.0967 0.16,-0.0968 0.09,-0.0484 0.89,-0.5441 0.17,-0.0968 0.39,-0.2418 0.21,-0.1209 1.88,-1.0884 1.36,-0.7739 0.98,-0.5321 0.04,-0.0241 0.29,-0.1573 0.78,-0.4232 0.1,-0.0484 1.39,-0.7376 0.88,-0.4474 0.64,-0.3265 0.16,-0.0726 0.12,-0.0725 1.03,-0.5079 0.14,-0.0605 0.26,-0.133 0.17,-0.0846 1.06,-0.5079 0.4,-0.1935 0.66,-0.3023 0.07,-0.0363 0.5,-0.2298 0.86,-0.3869 0.45,-0.2056 v 0 l 0.04,-0.0242 0.71,-0.3144 0.74,-0.3265 0.62,-0.266 0.44,-0.1814 0.54,-0.2298 0.36,-0.1572 0.34,-0.133 0.1,-0.0484 1.75,-0.7013 0.72,-0.2902 0.09,-0.0363 0.15,-0.0605 0.56,-0.2177 0.48,-0.1813 0.52,-0.2056 0.46,-0.1693 0.62,-0.2298 0.05,-0.0121 0.13,-0.0604 0.55,-0.1935 0.15,-0.0605 h 0.02 l 0.28,-0.1088 0.24,-0.0846 0.25,-0.0847 0.12,-0.0484 0.36,-0.1209 0.13,-0.0484 0.14,-0.0483 0.09,-0.0363 0.24,-0.0847 0.29,-0.0967 0.6,-0.2056 0.32,-0.1088 0.79,-0.266 0.75,-0.254 0.67,-0.2176 0.95,-0.3024 0.14,-0.0483 0.06,-0.0121 0.43,-0.1451 0.06,-0.0121 0.02,-0.0121 0.88,-0.266 0.34,-0.1089 0.88,-0.266 0.55,-0.1572 1.87,-0.5442 0.37,-0.1088 0.21,-0.0484 0.29,-0.0846 0.09,-0.0242 0.19,-0.0484 0.14,-0.0484 0.5,-0.133 0.83,-0.2176 0.46,-0.121 0.56,-0.1572 1.22,-0.3023 0.36,-0.0967 0.57,-0.1451 1.68,-0.3991 1.54,-0.3628 0.47,-0.1088 0.74,-0.1693 0.16,-0.0363 0.77,-0.1693 0.84,-0.1813 0.62,-0.1331 0.98,-0.2055 1.13,-0.2298 1.24,-0.2418 0.18,-0.0363 0.24,-0.0484 0.09,-0.0121 0.35,-0.0725 0.27,-0.0484 0.21,-0.0363 0.94,-0.1814 0.21,-0.0363 0.39,-0.0725 0.06,-0.0121 0.18,-0.0242 0.01,-0.0121 0.96,-0.1693 0.12,-0.0121 0.39,-0.0725 0.83,-0.1451 0.76,-0.121 0.58,-0.0967 0.02,-0.0121 0.09,-0.0121 0.19,-0.0363 0.38,-0.0604 0.14,-0.0242 1.5,-0.2298 0.04,-0.0121 0.54,-0.0846 0.18,-0.0242 0.15,-0.0242 0.92,-0.133 0.04,-0.0121 0.2,-0.0242 1.32,-0.1935 0.54,-0.0725 0.56,-0.0847 0.13,-0.0121 0.22,-0.0362 0.62,-0.0847 0.29,-0.0363 1.07,-0.1451 0.56,-0.0725 0.4,-0.0484 0.34,-0.0363 0.32,-0.0483 0.14,-0.0121 0.05,-0.0121 1.34,-0.1572 0.05,-0.0121 0.91,-0.1089 0.09,-0.012 0.24,-0.0242 0.19,-0.0242 0.36,-0.0363 0.05,-0.0121 0.56,-0.0604 0.31,-0.0363 0.78,-0.0847 1.29,-0.133"
             id="path2849"
             stroke="#000000"
             stroke-width="3.51891"
             stroke-linejoin="round"
             stroke-miterlimit="10"
             fill="none" />
          <path
             d="m 131.445,352.662 c 0,4.3 3.52,7.82 7.82,7.82 4.31,0 7.83,-3.52 7.83,-7.82 0,-4.3 -3.52,-7.82 -7.83,-7.82 -4.3,0 -7.82,3.52 -7.82,7.82"
             id="path2853"
             stroke="#008080"
             stroke-width="0.71"
             stroke-linecap="round"
             stroke-linejoin="round"
             stroke-miterlimit="10"
             fill="#008080" />
        </g>
      </g>
      <g
         id="g2887"
         transform="matrix(0.173966,0,0,-0.173966,63.395328,155.9461)">
        <path
           d="M 62.16,45.51 V 498.02"
           id="path2885"
           stroke="#000000"
           stroke-width="2.21882"
           stroke-linejoin="round"
           stroke-miterlimit="10"
           fill="none" />
      </g>
      <g
         id="g2943"
         transform="matrix(0.173966,0,0,-0.173966,63.395328,155.9461)">
        <path
           d="M 62.16,45.51 H 570.02"
           id="path2941"
           stroke="#000000"
           stroke-width="2.21882"
           stroke-linejoin="round"
           stroke-miterlimit="10"
           fill="none" />
      </g>
      <path
         d="M 75.578428,117.0771 104.34353,62.547593"
         id="path3940"
         stroke="#008080"
         stroke-width="0.6"
         fill="none" />
      <path
         d="m 91.513528,72.616393 -11.493,-9.889"
         id="path3942"
         stroke="#000000"
         stroke-width="0.565"
         stroke-dasharray="1.13, 0.565"
         fill="none"
         marker-end="url(#Arrow1Send)" />
      <text
         id="text3946"
         stroke-width="0.264583"
         font-family="Helvetica"
         font-size="4.18081px"
         xml:space="preserve"
         x="43.542236"
         y="47.442646"
         style="white-space:pre;inline-size:67.3768;display:inline;fill:#008080;fill-opacity:1"
         transform="translate(1.337647,6.8793319)"><tspan
           x="43.542236"
           y="47.442646"
           id="tspan13"><tspan
             style="text-anchor:middle"
             id="tspan12">Positive slope
</tspan></tspan><tspan
           x="43.542236"
           y="52.668658"
           id="tspan15"><tspan
             style="text-anchor:middle"
             id="tspan14">(increases the average)</tspan></tspan></text>
      <path
         d="M 103.26353,72.922193 V 147.9861"
         id="path4262"
         stroke="#000000"
         stroke-width="0.465"
         stroke-dasharray="0.93, 0.465"
         fill="none" />
      <path
         d="M 89.966528,94.594593 H 100.31153"
         id="path4266"
         stroke="#008080"
         stroke-width="0.465"
         fill="none"
         marker-end="url(#marker4270)" />
      <text
         xml:space="preserve"
         style="font-weight:500;font-stretch:condensed;font-size:5.40292px;line-height:1.2;font-family:'IBM Plex Sans Condensed';-inkscape-font-specification:'IBM Plex Sans Condensed,  Medium Condensed';text-align:center;text-decoration-color:#000000;text-anchor:middle;fill:#000000;stroke-width:0.63814"
         x="-108.56007"
         y="68.901146"
         id="text1"
         transform="rotate(-90)"><tspan
           sodipodi:role="line"
           id="tspan1"
           style="font-style:normal;font-variant:normal;font-weight:normal;font-stretch:normal;font-family:Helvetica;-inkscape-font-specification:Helvetica;stroke-width:0.638141"
           x="-108.56007"
           y="68.901146">Average fitness</tspan></text>
      <text
         xml:space="preserve"
         style="font-weight:500;font-stretch:condensed;font-size:5.40292px;line-height:1.2;font-family:'IBM Plex Sans Condensed';-inkscape-font-specification:'IBM Plex Sans Condensed,  Medium Condensed';text-align:center;text-decoration-color:#000000;text-anchor:middle;fill:#000000;stroke-width:0.63814"
         x="118.4858"
         y="154.92416"
         id="text1-2"><tspan
           sodipodi:role="line"
           id="tspan1-2"
           style="font-style:normal;font-variant:normal;font-weight:normal;font-stretch:normal;font-family:Helvetica;-inkscape-font-specification:Helvetica;stroke-width:0.638141"
           x="118.4858"
           y="154.92416">Average phenotype</tspan></text>
      <text
         id="text4675-9"
         stroke-width="0.264583"
         font-family="Helvetica"
         font-size="4.18081px"
         xml:space="preserve"
         x="120.59977"
         y="57.761459"
         style="white-space:pre;inline-size:70.2568;display:inline;fill:#800000;fill-opacity:1"
         transform="translate(-21.020181,3.821851)"><tspan
           x="120.59977"
           y="57.761459"
           id="tspan17"><tspan
             style="text-anchor:middle"
             id="tspan16">Negative slope
</tspan></tspan><tspan
           x="120.59977"
           y="62.987471"
           id="tspan19"><tspan
             style="text-anchor:middle"
             id="tspan18">(decreases the average)</tspan></tspan></text>
      <g
         id="g7"
         transform="translate(22.166736,4.3951286)">
        <path
           d="m 95.350353,90.130653 c 0,-0.748054 0.61236,-1.360415 1.360414,-1.360415 0.749794,0 1.362154,0.612361 1.362154,1.360415 0,0.748053 -0.61236,1.360414 -1.362154,1.360414 -0.748054,0 -1.360414,-0.612361 -1.360414,-1.360414"
           id="path4487-2"
           stroke="#800000"
           stroke-width="0.123516"
           stroke-linecap="round"
           stroke-linejoin="round"
           stroke-miterlimit="10"
           fill="#800000" />
        <path
           d="M 108.14076,112.61285 79.375757,58.08385"
           id="path4667-8"
           stroke="#800000"
           stroke-width="0.6"
           fill="none" />
        <path
           d="m 93.121757,76.56635 11.493003,-9.889"
           id="path4669-3"
           stroke="#000000"
           stroke-width="0.565"
           stroke-dasharray="1.13, 0.565"
           fill="none"
           marker-end="url(#marker4693-5)"
           style="marker-end:url(#marker4693-5)" />
        <path
           d="m 93.826757,90.13085 h -10.345"
           id="path4679-5"
           stroke="#800000"
           stroke-width="0.465"
           fill="#800000"
           marker-end="url(#marker4683-1)"
           style="marker-end:url(#marker4683-1)" />
      </g>
    </g>
    <text
       xml:space="preserve"
       transform="scale(0.26458333)"
       id="text2"
       style="fill:#000000;-inkscape-font-specification:Helvetica;font-family:Helvetica;font-size:16px;stroke-width:3.77952756;line-height:1.2;text-decoration-color:#000000;text-align:center;stroke:#000000;white-space:pre;shape-inside:url(#rect2)" />
  </g>
</svg>
